<?xml version="1.0" encoding="UTF-8" standalone="no"?>
<!-- Created with Inkscape (http://www.inkscape.org/) -->

<svg
   width="400"
   height="400"
   viewBox="0 0 105.83333 105.83333"
   version="1.1"
   id="svg1"
   xml:space="preserve"
   inkscape:version="1.3.2 (091e20e, 2023-11-25)"
   sodipodi:docname="cook-log.logo.svg"
   inkscape:export-filename="cook_log_logo_1024.png"
   inkscape:export-xdpi="472.90182"
   inkscape:export-ydpi="472.90182"
   xmlns:inkscape="http://www.inkscape.org/namespaces/inkscape"
   xmlns:sodipodi="http://sodipodi.sourceforge.net/DTD/sodipodi-0.dtd"
   xmlns="http://www.w3.org/2000/svg"
   xmlns:svg="http://www.w3.org/2000/svg"><sodipodi:namedview
     id="namedview1"
     pagecolor="#ffffff"
     bordercolor="#000000"
     borderopacity="0.25"
     inkscape:showpageshadow="2"
     inkscape:pageopacity="0.0"
     inkscape:pagecheckerboard="0"
     inkscape:deskcolor="#d1d1d1"
     inkscape:document-units="mm"
     inkscape:zoom="0.46282389"
     inkscape:cx="359.74807"
     inkscape:cy="387.83651"
     inkscape:window-width="1440"
     inkscape:window-height="786"
     inkscape:window-x="0"
     inkscape:window-y="25"
     inkscape:window-maximized="1"
     inkscape:current-layer="layer1"
     inkscape:export-bgcolor="#ffffff00" /><defs
     id="defs1" /><g
     inkscape:label="Layer 1"
     inkscape:groupmode="layer"
     id="layer1"><path
       style="fill:#808080;stroke-width:1.28235"
       d="M 11.488057,88.767346 C 8.4203669,87.707237 6.9223644,85.078186 7.4356765,81.655237 7.6282539,80.370959 8.6566799,78.802315 9.8467899,77.977571 12.384844,76.218684 16.706874,76.718536 18.357705,78.961865 l 0.498371,0.677234 -0.889539,0.616447 -0.889553,0.616455 -0.792581,-0.695894 c -1.49204,-1.310033 -3.340995,-1.471575 -4.890587,-0.427305 -1.095511,0.738258 -1.5966271,1.739152 -1.5966271,3.188957 0,2.42491 1.5304311,3.986364 3.9071791,3.986364 1.059617,0 1.630468,-0.258346 2.602926,-1.178003 l 0.709894,-0.671361 0.92592,0.612761 0.925935,0.61274 -0.457311,0.64224 c -1.391671,1.954408 -4.31734,2.725538 -6.923675,1.824846 z m 13.075489,0.172621 c -1.867101,-0.57052 -3.678098,-2.272491 -4.12755,-3.879026 -1.197034,-4.278702 1.531318,-8.150025 5.739438,-8.143793 2.239622,0.004 3.285109,0.392784 4.610867,1.717654 3.867201,3.864625 1.407629,10.152811 -4.091633,10.460672 -0.754045,0.04206 -1.713049,-0.02775 -2.131122,-0.155593 z m 4.03045,-2.687756 c 1.370728,-0.976026 1.964791,-3.202449 1.28721,-4.8241 -0.436665,-1.045105 -1.755061,-2.120815 -2.819747,-2.300687 -2.768709,-0.467777 -5.013755,2.043432 -4.339507,4.854001 0.271012,1.129685 1.223514,2.267233 2.262434,2.701946 0.92124,0.385491 2.773427,0.164216 3.60961,-0.43116 z m 10.037006,2.730144 c -3.813334,-0.979412 -5.707466,-5.196283 -3.930949,-8.751386 1.100754,-2.202806 3.005544,-3.343199 5.5523,-3.324155 2.588938,0.01934 4.531607,1.146651 5.610047,3.255375 1.147093,2.242936 0.745189,5.300643 -0.92867,7.065694 -1.399562,1.475773 -4.273243,2.275727 -6.302728,1.754472 z m 3.709044,-2.657141 c 2.02791,-1.514062 2.324804,-4.288759 0.649047,-6.065568 -1.780632,-1.888015 -4.865887,-1.471995 -6.031775,0.813335 -1.003103,1.966225 -0.237735,4.5265 1.639228,5.483498 0.985972,0.502689 2.920499,0.383178 3.7435,-0.231265 z m 34.473902,2.614753 c -0.979867,-0.299411 -2.240573,-1.109943 -3.031115,-1.948733 -0.720929,-0.764927 -1.524278,-2.869882 -1.524278,-3.993933 0,-1.217931 0.678271,-3.003411 1.510144,-3.975262 2.917185,-3.408074 8.888236,-2.546403 10.651239,1.537071 0.532428,1.233192 0.489661,3.755997 -0.08491,5.010325 -0.59792,1.305272 -1.734639,2.438828 -3.012383,3.004047 -1.170873,0.517935 -3.415872,0.70042 -4.508671,0.366485 z m 3.987567,-2.691561 c 1.507802,-1.114756 2.035589,-3.308547 1.193231,-4.959698 -1.631818,-3.198633 -5.894965,-2.868567 -7.021069,0.543584 -0.562888,1.705547 0.155921,3.598475 1.739965,4.581862 1.143087,0.709649 3.006008,0.634124 4.087873,-0.165693 z m 9.861101,2.704743 c -1.259597,-0.389065 -2.873409,-1.65197 -3.581865,-2.803019 -0.578433,-0.939778 -0.69776,-1.38984 -0.765897,-2.888804 -0.07092,-1.558764 -0.0078,-1.92573 0.52091,-3.005257 1.037732,-2.121057 3.041451,-3.33215 5.553896,-3.356884 1.930436,-0.01913 3.114609,0.347104 4.201016,1.298842 l 0.888313,0.778176 -0.83048,0.842273 -0.830473,0.842274 -0.706601,-0.594557 c -2.658808,-2.23725 -6.340848,-0.456569 -6.340848,3.0665 0,2.06635 1.331771,3.542209 3.373411,3.738381 1.371604,0.131836 2.30849,-0.210575 3.077656,-1.12468 0.932572,-1.108283 0.774845,-1.310447 -1.022446,-1.310447 h -1.583353 v -1.017869 -1.01787 h 2.940501 2.940491 l -0.0104,1.074429 c -0.0293,3.17272 -2.316741,5.461022 -5.621817,5.623953 -0.821315,0.04058 -1.812429,-0.02501 -2.202485,-0.145492 z m -42.553829,-5.93091 0.06028,-5.937539 1.187508,-0.06833 1.187504,-0.06835 v 2.712791 c 0,1.492036 0.09399,2.770859 0.208894,2.841864 0.114898,0.07107 0.442086,-0.202901 0.7271,-0.608681 0.285017,-0.405761 1.264296,-1.679298 2.176161,-2.830052 l 1.657939,-2.092275 h 1.23403 c 0.678707,0 1.233717,0.0763 1.233347,0.169632 -3.72e-4,0.09335 -0.967337,1.378755 -2.148816,2.856561 -1.181494,1.477813 -2.148159,2.809349 -2.148159,2.958969 0,0.149703 0.965549,1.467175 2.145682,2.92785 1.180123,1.460699 2.203989,2.750138 2.275277,2.865467 0.07477,0.120897 -0.522878,0.209629 -1.412229,0.209629 h -1.541823 l -1.920969,-2.474131 c -1.056525,-1.360759 -2.048195,-2.480395 -2.203693,-2.488112 -0.209902,-0.01058 -0.282745,0.626975 -0.282745,2.47413 v 2.488113 h -1.247817 -1.247803 z m 14.702491,0 0.06027,-5.937539 1.182974,-0.06821 1.182975,-0.06822 0.06104,4.818239 0.06104,4.818237 2.770856,0.0635 2.770852,0.0635 v 1.123987 1.124009 h -4.07521 -4.075216 z M 49.552173,70.942003 c -0.37831,-0.108754 -0.411573,-0.281793 -0.294702,-1.533376 0.32537,-3.48426 2.640863,-7.72485 8.529925,-15.621721 2.816268,-3.776442 6.4564,-9.183475 7.233183,-10.74413 0.27863,-0.559824 0.838194,-1.876579 1.243465,-2.926118 L 67.000906,38.2084 67.3732,38.928345 c 0.554486,1.072255 1.6763,4.170213 2.390874,6.602546 0.851148,2.897255 0.879519,3.036803 1.146906,5.642506 0.574418,5.597534 -1.302464,10.886126 -5.222185,14.714796 -2.045106,1.997597 -4.33988,3.425883 -7.001767,4.35799 -1.744135,0.610738 -2.23764,0.679986 -5.315521,0.745805 -1.866089,0.03987 -3.584786,0.0175 -3.819334,-0.05003 z m -8.686265,-4.283695 c -4.278841,-3.743022 -6.664333,-9.930603 -5.936664,-15.398683 0.331631,-2.492134 1.621647,-5.815391 3.40537,-8.772754 1.336798,-2.216385 2.039564,-3.226655 7.742236,-11.130005 4.444726,-6.159977 6.236541,-9.566888 6.811035,-12.95036 l 0.291218,-1.715117 1.643193,1.583347 c 3.911014,3.768598 5.925323,8.735038 5.596121,13.797722 -0.324436,4.989329 -2.083333,8.470838 -9.281412,18.371368 -6.430589,8.844865 -7.925645,11.537385 -8.807886,15.862481 l -0.282489,1.384872 z"
       id="path1" /></g></svg>
