<?xml version="1.0" encoding="UTF-8" standalone="no"?>
<!-- Created with Inkscape (http://www.inkscape.org/) -->

<svg
   width="400"
   height="400"
   viewBox="0 0 105.83333 105.83333"
   version="1.1"
   id="svg1"
   xml:space="preserve"
   inkscape:version="1.3.2 (091e20e, 2023-11-25)"
   sodipodi:docname="cook-log.logo-no-text.svg"
   inkscape:export-filename="cook_log_logo_1024.png"
   inkscape:export-xdpi="245.75999"
   inkscape:export-ydpi="245.75999"
   xmlns:inkscape="http://www.inkscape.org/namespaces/inkscape"
   xmlns:sodipodi="http://sodipodi.sourceforge.net/DTD/sodipodi-0.dtd"
   xmlns="http://www.w3.org/2000/svg"
   xmlns:svg="http://www.w3.org/2000/svg"><sodipodi:namedview
     id="namedview1"
     pagecolor="#ffffff"
     bordercolor="#000000"
     borderopacity="0.25"
     inkscape:showpageshadow="2"
     inkscape:pageopacity="0.0"
     inkscape:pagecheckerboard="0"
     inkscape:deskcolor="#d1d1d1"
     inkscape:document-units="mm"
     inkscape:zoom="0.42888102"
     inkscape:cx="348.58153"
     inkscape:cy="174.87367"
     inkscape:window-width="1312"
     inkscape:window-height="449"
     inkscape:window-x="0"
     inkscape:window-y="25"
     inkscape:window-maximized="0"
     inkscape:current-layer="layer1"
     inkscape:export-bgcolor="#ffffff00" /><defs
     id="defs1" /><g
     inkscape:label="Layer 1"
     inkscape:groupmode="layer"
     id="layer1"><path
       style="fill:#808080;stroke-width:1.28235"
       d="m 49.562708,80.007103 c -0.37831,-0.108754 -0.411573,-0.281793 -0.294702,-1.533376 0.32537,-3.48426 2.640863,-7.72485 8.529925,-15.621721 2.816268,-3.776442 6.4564,-9.183475 7.233183,-10.74413 0.27863,-0.559824 0.838194,-1.876579 1.243465,-2.926118 l 0.736862,-1.908258 0.372294,0.719945 c 0.554486,1.072255 1.6763,4.170213 2.390874,6.602546 0.851148,2.897255 0.879519,3.036803 1.146906,5.642506 0.574418,5.597534 -1.302464,10.886126 -5.222185,14.714796 -2.045106,1.997597 -4.33988,3.425883 -7.001767,4.35799 -1.744135,0.610738 -2.23764,0.679986 -5.315521,0.745805 -1.866089,0.03987 -3.584786,0.0175 -3.819334,-0.05003 z m -8.686265,-4.283695 c -4.278841,-3.743022 -6.664333,-9.930603 -5.936664,-15.398683 0.331631,-2.492134 1.621647,-5.815391 3.40537,-8.772754 1.336798,-2.216385 2.039564,-3.226655 7.742236,-11.130005 4.444726,-6.159977 6.236541,-9.566888 6.811035,-12.95036 l 0.291218,-1.715117 1.643193,1.583347 c 3.911014,3.768598 5.925323,8.735038 5.596121,13.797722 -0.324436,4.989329 -2.083333,8.470838 -9.281412,18.371368 -6.430589,8.844865 -7.925645,11.537385 -8.807886,15.862481 l -0.282489,1.384872 z"
       id="path1"
       sodipodi:nodetypes="csssscsscsscccssssscsscscs" /></g></svg>
